<svg xmlns="http://www.w3.org/2000/svg" viewBox="0 0 32 26" width="256" height="208"
     shape-rendering="crispEdges" role="img"
     aria-label="Pixel-art kestrel perched on a branch, blinking and occasionally shaking">
  <style>
    .shake { }
    .blink { opacity: 0; }
    @media (prefers-reduced-motion: no-preference) {
      .shake { animation: shake 17s steps(1, end) infinite; }
      .blink { animation: blink 5s steps(1, end) infinite; }
    }
    @keyframes blink {
      0%        { opacity: 0; }
      96%, 100% { opacity: 1; }
    }
    @keyframes shake {
      0%         { transform: translateX(0); }
      94%        { transform: translateX(1px); }
      94.8%      { transform: translateX(-1px); }
      95.6%      { transform: translateX(1px); }
      96.4%      { transform: translateX(-1px); }
      97.2%, 100% { transform: translateX(0); }
    }
  </style>

  <!-- tail (behind branch, shakes with the bird) -->
  <g class="shake">
    <rect x="13" y="19" width="6" height="1" fill="#1f1b2e"/>
    <rect x="13" y="20" width="1" height="1" fill="#1f1b2e"/>
    <rect x="14" y="20" width="4" height="1" fill="#c8763d"/>
    <rect x="18" y="20" width="1" height="1" fill="#1f1b2e"/>
    <rect x="13" y="21" width="1" height="1" fill="#1f1b2e"/>
    <rect x="14" y="21" width="1" height="1" fill="#c8763d"/>
    <rect x="15" y="21" width="2" height="1" fill="#96522b"/>
    <rect x="17" y="21" width="1" height="1" fill="#c8763d"/>
    <rect x="18" y="21" width="1" height="1" fill="#1f1b2e"/>
    <rect x="13" y="22" width="1" height="1" fill="#1f1b2e"/>
    <rect x="14" y="22" width="4" height="1" fill="#26222f"/>
    <rect x="18" y="22" width="1" height="1" fill="#1f1b2e"/>
    <rect x="13" y="23" width="2" height="1" fill="#1f1b2e"/>
    <rect x="15" y="23" width="2" height="1" fill="#f0e2c4"/>
    <rect x="17" y="23" width="2" height="1" fill="#1f1b2e"/>
    <rect x="14" y="24" width="4" height="1" fill="#1f1b2e"/>
  </g>

  <!-- branch (static) -->
  <g>
    <rect x="26" y="14" width="4" height="1" fill="#1f1b2e"/>
    <rect x="26" y="15" width="1" height="1" fill="#1f1b2e"/>
    <rect x="27" y="15" width="2" height="1" fill="#57b34a"/>
    <rect x="29" y="15" width="1" height="1" fill="#1f1b2e"/>
    <rect x="0" y="16" width="32" height="1" fill="#1f1b2e"/>
    <rect x="0" y="17" width="1" height="1" fill="#1f1b2e"/>
    <rect x="1" y="17" width="30" height="1" fill="#7a4a2b"/>
    <rect x="31" y="17" width="1" height="1" fill="#1f1b2e"/>
    <rect x="0" y="18" width="1" height="1" fill="#1f1b2e"/>
    <rect x="1" y="18" width="30" height="1" fill="#5c3620"/>
    <rect x="31" y="18" width="1" height="1" fill="#1f1b2e"/>
    <rect x="0" y="19" width="32" height="1" fill="#1f1b2e"/>
  </g>

  <!-- body + feet (in front, shakes) with blink overlay -->
  <g class="shake">
    <rect x="12" y="2" width="8" height="1" fill="#1f1b2e"/>
    <rect x="11" y="3" width="2" height="1" fill="#1f1b2e"/>
    <rect x="13" y="3" width="6" height="1" fill="#6c8fb4"/>
    <rect x="19" y="3" width="2" height="1" fill="#1f1b2e"/>
    <rect x="11" y="4" width="1" height="1" fill="#1f1b2e"/>
    <rect x="12" y="4" width="1" height="1" fill="#48678c"/>
    <rect x="13" y="4" width="6" height="1" fill="#6c8fb4"/>
    <rect x="19" y="4" width="1" height="1" fill="#48678c"/>
    <rect x="20" y="4" width="1" height="1" fill="#1f1b2e"/>
    <rect x="11" y="5" width="1" height="1" fill="#1f1b2e"/>
    <rect x="12" y="5" width="1" height="1" fill="#6c8fb4"/>
    <rect x="13" y="5" width="1" height="1" fill="#f0e2c4"/>
    <rect x="14" y="5" width="1" height="1" fill="#26222f"/>
    <rect x="15" y="5" width="2" height="1" fill="#f0e2c4"/>
    <rect x="17" y="5" width="1" height="1" fill="#26222f"/>
    <rect x="18" y="5" width="1" height="1" fill="#f0e2c4"/>
    <rect x="19" y="5" width="1" height="1" fill="#6c8fb4"/>
    <rect x="20" y="5" width="1" height="1" fill="#1f1b2e"/>
    <rect x="11" y="6" width="1" height="1" fill="#1f1b2e"/>
    <rect x="12" y="6" width="2" height="1" fill="#f0e2c4"/>
    <rect x="14" y="6" width="1" height="1" fill="#26222f"/>
    <rect x="15" y="6" width="2" height="1" fill="#e6a83c"/>
    <rect x="17" y="6" width="1" height="1" fill="#26222f"/>
    <rect x="18" y="6" width="2" height="1" fill="#f0e2c4"/>
    <rect x="20" y="6" width="1" height="1" fill="#1f1b2e"/>
    <rect x="10" y="7" width="2" height="1" fill="#1f1b2e"/>
    <rect x="12" y="7" width="2" height="1" fill="#f0e2c4"/>
    <rect x="14" y="7" width="1" height="1" fill="#26222f"/>
    <rect x="15" y="7" width="2" height="1" fill="#f0e2c4"/>
    <rect x="17" y="7" width="1" height="1" fill="#26222f"/>
    <rect x="18" y="7" width="2" height="1" fill="#f0e2c4"/>
    <rect x="20" y="7" width="2" height="1" fill="#1f1b2e"/>
    <rect x="9" y="8" width="2" height="1" fill="#1f1b2e"/>
    <rect x="11" y="8" width="2" height="1" fill="#c8763d"/>
    <rect x="13" y="8" width="6" height="1" fill="#f0e2c4"/>
    <rect x="19" y="8" width="2" height="1" fill="#c8763d"/>
    <rect x="21" y="8" width="2" height="1" fill="#1f1b2e"/>
    <rect x="9" y="9" width="1" height="1" fill="#1f1b2e"/>
    <rect x="10" y="9" width="3" height="1" fill="#c8763d"/>
    <rect x="13" y="9" width="6" height="1" fill="#f0e2c4"/>
    <rect x="19" y="9" width="3" height="1" fill="#c8763d"/>
    <rect x="22" y="9" width="1" height="1" fill="#1f1b2e"/>
    <rect x="9" y="10" width="1" height="1" fill="#1f1b2e"/>
    <rect x="10" y="10" width="2" height="1" fill="#c8763d"/>
    <rect x="12" y="10" width="8" height="1" fill="#f0e2c4"/>
    <rect x="20" y="10" width="2" height="1" fill="#c8763d"/>
    <rect x="22" y="10" width="1" height="1" fill="#1f1b2e"/>
    <rect x="9" y="11" width="1" height="1" fill="#1f1b2e"/>
    <rect x="10" y="11" width="2" height="1" fill="#c8763d"/>
    <rect x="12" y="11" width="8" height="1" fill="#f0e2c4"/>
    <rect x="20" y="11" width="2" height="1" fill="#c8763d"/>
    <rect x="22" y="11" width="1" height="1" fill="#1f1b2e"/>
    <rect x="9" y="12" width="1" height="1" fill="#1f1b2e"/>
    <rect x="10" y="12" width="1" height="1" fill="#96522b"/>
    <rect x="11" y="12" width="1" height="1" fill="#c8763d"/>
    <rect x="12" y="12" width="8" height="1" fill="#f0e2c4"/>
    <rect x="20" y="12" width="1" height="1" fill="#c8763d"/>
    <rect x="21" y="12" width="1" height="1" fill="#96522b"/>
    <rect x="22" y="12" width="1" height="1" fill="#1f1b2e"/>
    <rect x="9" y="13" width="2" height="1" fill="#1f1b2e"/>
    <rect x="11" y="13" width="1" height="1" fill="#96522b"/>
    <rect x="12" y="13" width="1" height="1" fill="#c8763d"/>
    <rect x="13" y="13" width="6" height="1" fill="#f0e2c4"/>
    <rect x="19" y="13" width="1" height="1" fill="#c8763d"/>
    <rect x="20" y="13" width="1" height="1" fill="#96522b"/>
    <rect x="21" y="13" width="2" height="1" fill="#1f1b2e"/>
    <rect x="10" y="14" width="2" height="1" fill="#1f1b2e"/>
    <rect x="12" y="14" width="1" height="1" fill="#96522b"/>
    <rect x="13" y="14" width="1" height="1" fill="#c8763d"/>
    <rect x="14" y="14" width="4" height="1" fill="#f0e2c4"/>
    <rect x="18" y="14" width="1" height="1" fill="#c8763d"/>
    <rect x="19" y="14" width="1" height="1" fill="#96522b"/>
    <rect x="20" y="14" width="2" height="1" fill="#1f1b2e"/>
    <rect x="11" y="15" width="2" height="1" fill="#1f1b2e"/>
    <rect x="13" y="15" width="1" height="1" fill="#96522b"/>
    <rect x="14" y="15" width="1" height="1" fill="#c8763d"/>
    <rect x="15" y="15" width="2" height="1" fill="#f0e2c4"/>
    <rect x="17" y="15" width="1" height="1" fill="#c8763d"/>
    <rect x="18" y="15" width="1" height="1" fill="#96522b"/>
    <rect x="19" y="15" width="2" height="1" fill="#1f1b2e"/>
    <rect x="11" y="16" width="1" height="1" fill="#1f1b2e"/>
    <rect x="12" y="16" width="2" height="1" fill="#e6a83c"/>
    <rect x="14" y="16" width="4" height="1" fill="#f0e2c4"/>
    <rect x="18" y="16" width="2" height="1" fill="#e6a83c"/>
    <rect x="20" y="16" width="1" height="1" fill="#1f1b2e"/>
    <rect x="11" y="17" width="10" height="1" fill="#1f1b2e"/>
    <g class="blink">
        <rect x="14" y="5" width="1" height="1" fill="#f0e2c4"/>
        <rect x="17" y="5" width="1" height="1" fill="#f0e2c4"/>
    </g>
  </g>
</svg>
