<svg class="rich-terminal" viewBox="0 0 994 635.5999999999999" xmlns="http://www.w3.org/2000/svg">
    <!-- Generated with Rich https://www.textualize.io -->
    <style>

    @font-face {
        font-family: "Fira Code";
        src: local("FiraCode-Regular"),
                url("https://cdnjs.cloudflare.com/ajax/libs/firacode/6.2.0/woff2/FiraCode-Regular.woff2") format("woff2"),
                url("https://cdnjs.cloudflare.com/ajax/libs/firacode/6.2.0/woff/FiraCode-Regular.woff") format("woff");
        font-style: normal;
        font-weight: 400;
    }
    @font-face {
        font-family: "Fira Code";
        src: local("FiraCode-Bold"),
                url("https://cdnjs.cloudflare.com/ajax/libs/firacode/6.2.0/woff2/FiraCode-Bold.woff2") format("woff2"),
                url("https://cdnjs.cloudflare.com/ajax/libs/firacode/6.2.0/woff/FiraCode-Bold.woff") format("woff");
        font-style: bold;
        font-weight: 700;
    }

    .terminal-1890149655-matrix {
        font-family: Fira Code, monospace;
        font-size: 20px;
        line-height: 24.4px;
        font-variant-east-asian: full-width;
    }

    .terminal-1890149655-title {
        font-size: 18px;
        font-weight: bold;
        font-family: arial;
    }

    .terminal-1890149655-r1 { fill: #676560 }
.terminal-1890149655-r2 { fill: #e0e0e0 }
.terminal-1890149655-r3 { fill: #c5c8c6 }
.terminal-1890149655-r4 { fill: #1d1f23 }
.terminal-1890149655-r5 { fill: #646464 }
.terminal-1890149655-r6 { fill: #0a0f13 }
.terminal-1890149655-r7 { fill: #00ff00 }
.terminal-1890149655-r8 { fill: #000000 }
.terminal-1890149655-r9 { fill: #121212 }
.terminal-1890149655-r10 { fill: #6d7479 }
.terminal-1890149655-r11 { fill: #e0e0e0;font-weight: bold }
.terminal-1890149655-r12 { fill: #98a7b2 }
.terminal-1890149655-r13 { fill: #9a9ea1 }
.terminal-1890149655-r14 { fill: #161619 }
.terminal-1890149655-r15 { fill: #141414 }
.terminal-1890149655-r16 { fill: #383838 }
    </style>

    <defs>
    <clipPath id="terminal-1890149655-clip-terminal">
      <rect x="0" y="0" width="975.0" height="584.5999999999999" />
    </clipPath>
    <clipPath id="terminal-1890149655-line-0">
    <rect x="0" y="1.5" width="976" height="24.65"/>
            </clipPath>
<clipPath id="terminal-1890149655-line-1">
    <rect x="0" y="25.9" width="976" height="24.65"/>
            </clipPath>
<clipPath id="terminal-1890149655-line-2">
    <rect x="0" y="50.3" width="976" height="24.65"/>
            </clipPath>
<clipPath id="terminal-1890149655-line-3">
    <rect x="0" y="74.7" width="976" height="24.65"/>
            </clipPath>
<clipPath id="terminal-1890149655-line-4">
    <rect x="0" y="99.1" width="976" height="24.65"/>
            </clipPath>
<clipPath id="terminal-1890149655-line-5">
    <rect x="0" y="123.5" width="976" height="24.65"/>
            </clipPath>
<clipPath id="terminal-1890149655-line-6">
    <rect x="0" y="147.9" width="976" height="24.65"/>
            </clipPath>
<clipPath id="terminal-1890149655-line-7">
    <rect x="0" y="172.3" width="976" height="24.65"/>
            </clipPath>
<clipPath id="terminal-1890149655-line-8">
    <rect x="0" y="196.7" width="976" height="24.65"/>
            </clipPath>
<clipPath id="terminal-1890149655-line-9">
    <rect x="0" y="221.1" width="976" height="24.65"/>
            </clipPath>
<clipPath id="terminal-1890149655-line-10">
    <rect x="0" y="245.5" width="976" height="24.65"/>
            </clipPath>
<clipPath id="terminal-1890149655-line-11">
    <rect x="0" y="269.9" width="976" height="24.65"/>
            </clipPath>
<clipPath id="terminal-1890149655-line-12">
    <rect x="0" y="294.3" width="976" height="24.65"/>
            </clipPath>
<clipPath id="terminal-1890149655-line-13">
    <rect x="0" y="318.7" width="976" height="24.65"/>
            </clipPath>
<clipPath id="terminal-1890149655-line-14">
    <rect x="0" y="343.1" width="976" height="24.65"/>
            </clipPath>
<clipPath id="terminal-1890149655-line-15">
    <rect x="0" y="367.5" width="976" height="24.65"/>
            </clipPath>
<clipPath id="terminal-1890149655-line-16">
    <rect x="0" y="391.9" width="976" height="24.65"/>
            </clipPath>
<clipPath id="terminal-1890149655-line-17">
    <rect x="0" y="416.3" width="976" height="24.65"/>
            </clipPath>
<clipPath id="terminal-1890149655-line-18">
    <rect x="0" y="440.7" width="976" height="24.65"/>
            </clipPath>
<clipPath id="terminal-1890149655-line-19">
    <rect x="0" y="465.1" width="976" height="24.65"/>
            </clipPath>
<clipPath id="terminal-1890149655-line-20">
    <rect x="0" y="489.5" width="976" height="24.65"/>
            </clipPath>
<clipPath id="terminal-1890149655-line-21">
    <rect x="0" y="513.9" width="976" height="24.65"/>
            </clipPath>
<clipPath id="terminal-1890149655-line-22">
    <rect x="0" y="538.3" width="976" height="24.65"/>
            </clipPath>
    </defs>

    <rect fill="#292929" stroke="rgba(255,255,255,0.35)" stroke-width="1" x="1" y="1" width="992" height="633.6" rx="8"/><text class="terminal-1890149655-title" fill="#c5c8c6" text-anchor="middle" x="496" y="27">KestrelApp</text>
            <g transform="translate(26,22)">
            <circle cx="0" cy="0" r="7" fill="#ff5f57"/>
            <circle cx="22" cy="0" r="7" fill="#febc2e"/>
            <circle cx="44" cy="0" r="7" fill="#28c840"/>
            </g>
        
    <g transform="translate(9, 41)" clip-path="url(#terminal-1890149655-clip-terminal)">
    <rect fill="#542410" x="0" y="1.5" width="878.4" height="24.65" shape-rendering="crispEdges"/><rect fill="#542410" x="878.4" y="1.5" width="97.6" height="24.65" shape-rendering="crispEdges"/><rect fill="#161616" x="0" y="25.9" width="12.2" height="24.65" shape-rendering="crispEdges"/><rect fill="#161616" x="12.2" y="25.9" width="622.2" height="24.65" shape-rendering="crispEdges"/><rect fill="#161616" x="634.4" y="25.9" width="12.2" height="24.65" shape-rendering="crispEdges"/><rect fill="#161619" x="646.6" y="25.9" width="12.2" height="24.65" shape-rendering="crispEdges"/><rect fill="#161619" x="658.8" y="25.9" width="12.2" height="24.65" shape-rendering="crispEdges"/><rect fill="#161619" x="671" y="25.9" width="292.8" height="24.65" shape-rendering="crispEdges"/><rect fill="#161619" x="963.8" y="25.9" width="12.2" height="24.65" shape-rendering="crispEdges"/><rect fill="#161616" x="0" y="50.3" width="12.2" height="24.65" shape-rendering="crispEdges"/><rect fill="#161616" x="12.2" y="50.3" width="170.8" height="24.65" shape-rendering="crispEdges"/><rect fill="#161616" x="183" y="50.3" width="427" height="24.65" shape-rendering="crispEdges"/><rect fill="#0a0a0a" x="610" y="50.3" width="24.4" height="24.65" shape-rendering="crispEdges"/><rect fill="#161616" x="634.4" y="50.3" width="12.2" height="24.65" shape-rendering="crispEdges"/><rect fill="#161619" x="646.6" y="50.3" width="12.2" height="24.65" shape-rendering="crispEdges"/><rect fill="#161619" x="658.8" y="50.3" width="12.2" height="24.65" shape-rendering="crispEdges"/><rect fill="#161619" x="671" y="50.3" width="292.8" height="24.65" shape-rendering="crispEdges"/><rect fill="#161619" x="963.8" y="50.3" width="12.2" height="24.65" shape-rendering="crispEdges"/><rect fill="#141f27" x="0" y="74.7" width="12.2" height="24.65" shape-rendering="crispEdges"/><rect fill="#141f27" x="12.2" y="74.7" width="951.6" height="24.65" shape-rendering="crispEdges"/><rect fill="#141f27" x="963.8" y="74.7" width="12.2" height="24.65" shape-rendering="crispEdges"/><rect fill="#141f27" x="0" y="99.1" width="12.2" height="24.65" shape-rendering="crispEdges"/><rect fill="#141f27" x="12.2" y="99.1" width="36.6" height="24.65" shape-rendering="crispEdges"/><rect fill="#141f27" x="48.8" y="99.1" width="12.2" height="24.65" shape-rendering="crispEdges"/><rect fill="#141f27" x="61" y="99.1" width="890.6" height="24.65" shape-rendering="crispEdges"/><rect fill="#141f27" x="951.6" y="99.1" width="12.2" height="24.65" shape-rendering="crispEdges"/><rect fill="#141f27" x="963.8" y="99.1" width="12.2" height="24.65" shape-rendering="crispEdges"/><rect fill="#141f27" x="0" y="123.5" width="12.2" height="24.65" shape-rendering="crispEdges"/><rect fill="#141f27" x="12.2" y="123.5" width="12.2" height="24.65" shape-rendering="crispEdges"/><rect fill="#141f27" x="24.4" y="123.5" width="24.4" height="24.65" shape-rendering="crispEdges"/><rect fill="#141f27" x="48.8" y="123.5" width="12.2" height="24.65" shape-rendering="crispEdges"/><rect fill="#e0e0e0" x="61" y="123.5" width="12.2" height="24.65" shape-rendering="crispEdges"/><rect fill="#141f27" x="73.2" y="123.5" width="231.8" height="24.65" shape-rendering="crispEdges"/><rect fill="#141f27" x="305" y="123.5" width="646.6" height="24.65" shape-rendering="crispEdges"/><rect fill="#141f27" x="951.6" y="123.5" width="12.2" height="24.65" shape-rendering="crispEdges"/><rect fill="#141f27" x="963.8" y="123.5" width="12.2" height="24.65" shape-rendering="crispEdges"/><rect fill="#141f27" x="0" y="147.9" width="12.2" height="24.65" shape-rendering="crispEdges"/><rect fill="#141f27" x="12.2" y="147.9" width="12.2" height="24.65" shape-rendering="crispEdges"/><rect fill="#141f27" x="24.4" y="147.9" width="24.4" height="24.65" shape-rendering="crispEdges"/><rect fill="#141f27" x="48.8" y="147.9" width="12.2" height="24.65" shape-rendering="crispEdges"/><rect fill="#141f27" x="61" y="147.9" width="890.6" height="24.65" shape-rendering="crispEdges"/><rect fill="#141f27" x="951.6" y="147.9" width="12.2" height="24.65" shape-rendering="crispEdges"/><rect fill="#141f27" x="963.8" y="147.9" width="12.2" height="24.65" shape-rendering="crispEdges"/><rect fill="#161616" x="0" y="172.3" width="12.2" height="24.65" shape-rendering="crispEdges"/><rect fill="#161616" x="12.2" y="172.3" width="597.8" height="24.65" shape-rendering="crispEdges"/><rect fill="#0a0a0a" x="610" y="172.3" width="24.4" height="24.65" shape-rendering="crispEdges"/><rect fill="#161616" x="634.4" y="172.3" width="12.2" height="24.65" shape-rendering="crispEdges"/><rect fill="#161619" x="646.6" y="172.3" width="12.2" height="24.65" shape-rendering="crispEdges"/><rect fill="#161616" x="658.8" y="172.3" width="12.2" height="24.65" shape-rendering="crispEdges"/><rect fill="#161616" x="671" y="172.3" width="36.6" height="24.65" shape-rendering="crispEdges"/><rect fill="#161616" x="707.6" y="172.3" width="231.8" height="24.65" shape-rendering="crispEdges"/><rect fill="#161616" x="939.4" y="172.3" width="12.2" height="24.65" shape-rendering="crispEdges"/><rect fill="#0a0a0a" x="951.6" y="172.3" width="24.4" height="24.65" shape-rendering="crispEdges"/><rect fill="#141f27" x="0" y="196.7" width="976" height="24.65" shape-rendering="crispEdges"/><rect fill="#0e395a" x="0" y="221.1" width="24.4" height="24.65" shape-rendering="crispEdges"/><rect fill="#0e395a" x="24.4" y="221.1" width="48.8" height="24.65" shape-rendering="crispEdges"/><rect fill="#0e395a" x="73.2" y="221.1" width="878.4" height="24.65" shape-rendering="crispEdges"/><rect fill="#0e395a" x="951.6" y="221.1" width="24.4" height="24.65" shape-rendering="crispEdges"/><rect fill="#0e395a" x="0" y="245.5" width="24.4" height="24.65" shape-rendering="crispEdges"/><rect fill="#0e395a" x="24.4" y="245.5" width="780.8" height="24.65" shape-rendering="crispEdges"/><rect fill="#0e395a" x="805.2" y="245.5" width="146.4" height="24.65" shape-rendering="crispEdges"/><rect fill="#0e395a" x="951.6" y="245.5" width="24.4" height="24.65" shape-rendering="crispEdges"/><rect fill="#141f27" x="0" y="269.9" width="24.4" height="24.65" shape-rendering="crispEdges"/><rect fill="#141f27" x="24.4" y="269.9" width="97.6" height="24.65" shape-rendering="crispEdges"/><rect fill="#141f27" x="122" y="269.9" width="829.6" height="24.65" shape-rendering="crispEdges"/><rect fill="#141f27" x="951.6" y="269.9" width="24.4" height="24.65" shape-rendering="crispEdges"/><rect fill="#141f27" x="0" y="294.3" width="24.4" height="24.65" shape-rendering="crispEdges"/><rect fill="#141f27" x="24.4" y="294.3" width="329.4" height="24.65" shape-rendering="crispEdges"/><rect fill="#141f27" x="353.8" y="294.3" width="597.8" height="24.65" shape-rendering="crispEdges"/><rect fill="#141f27" x="951.6" y="294.3" width="24.4" height="24.65" shape-rendering="crispEdges"/><rect fill="#141f27" x="0" y="318.7" width="24.4" height="24.65" shape-rendering="crispEdges"/><rect fill="#141f27" x="24.4" y="318.7" width="48.8" height="24.65" shape-rendering="crispEdges"/><rect fill="#141f27" x="73.2" y="318.7" width="878.4" height="24.65" shape-rendering="crispEdges"/><rect fill="#141f27" x="951.6" y="318.7" width="24.4" height="24.65" shape-rendering="crispEdges"/><rect fill="#141f27" x="0" y="343.1" width="24.4" height="24.65" shape-rendering="crispEdges"/><rect fill="#141f27" x="24.4" y="343.1" width="488" height="24.65" shape-rendering="crispEdges"/><rect fill="#141f27" x="512.4" y="343.1" width="439.2" height="24.65" shape-rendering="crispEdges"/><rect fill="#141f27" x="951.6" y="343.1" width="24.4" height="24.65" shape-rendering="crispEdges"/><rect fill="#141f27" x="0" y="367.5" width="24.4" height="24.65" shape-rendering="crispEdges"/><rect fill="#141f27" x="24.4" y="367.5" width="122" height="24.65" shape-rendering="crispEdges"/><rect fill="#141f27" x="146.4" y="367.5" width="805.2" height="24.65" shape-rendering="crispEdges"/><rect fill="#141f27" x="951.6" y="367.5" width="24.4" height="24.65" shape-rendering="crispEdges"/><rect fill="#141f27" x="0" y="391.9" width="24.4" height="24.65" shape-rendering="crispEdges"/><rect fill="#141f27" x="24.4" y="391.9" width="561.2" height="24.65" shape-rendering="crispEdges"/><rect fill="#141f27" x="585.6" y="391.9" width="366" height="24.65" shape-rendering="crispEdges"/><rect fill="#141f27" x="951.6" y="391.9" width="24.4" height="24.65" shape-rendering="crispEdges"/><rect fill="#141f27" x="0" y="416.3" width="24.4" height="24.65" shape-rendering="crispEdges"/><rect fill="#141f27" x="24.4" y="416.3" width="61" height="24.65" shape-rendering="crispEdges"/><rect fill="#141f27" x="85.4" y="416.3" width="866.2" height="24.65" shape-rendering="crispEdges"/><rect fill="#141f27" x="951.6" y="416.3" width="24.4" height="24.65" shape-rendering="crispEdges"/><rect fill="#141f27" x="0" y="440.7" width="24.4" height="24.65" shape-rendering="crispEdges"/><rect fill="#141f27" x="24.4" y="440.7" width="292.8" height="24.65" shape-rendering="crispEdges"/><rect fill="#141f27" x="317.2" y="440.7" width="634.4" height="24.65" shape-rendering="crispEdges"/><rect fill="#141f27" x="951.6" y="440.7" width="24.4" height="24.65" shape-rendering="crispEdges"/><rect fill="#141f27" x="0" y="465.1" width="976" height="24.65" shape-rendering="crispEdges"/><rect fill="#161616" x="0" y="489.5" width="12.2" height="24.65" shape-rendering="crispEdges"/><rect fill="#161616" x="12.2" y="489.5" width="622.2" height="24.65" shape-rendering="crispEdges"/><rect fill="#161616" x="634.4" y="489.5" width="12.2" height="24.65" shape-rendering="crispEdges"/><rect fill="#161619" x="646.6" y="489.5" width="12.2" height="24.65" shape-rendering="crispEdges"/><rect fill="#161616" x="658.8" y="489.5" width="12.2" height="24.65" shape-rendering="crispEdges"/><rect fill="#161616" x="671" y="489.5" width="36.6" height="24.65" shape-rendering="crispEdges"/><rect fill="#161616" x="707.6" y="489.5" width="244" height="24.65" shape-rendering="crispEdges"/><rect fill="#0a0a0a" x="951.6" y="489.5" width="24.4" height="24.65" shape-rendering="crispEdges"/><rect fill="#141414" x="0" y="513.9" width="12.2" height="24.65" shape-rendering="crispEdges"/><rect fill="#161616" x="12.2" y="513.9" width="622.2" height="24.65" shape-rendering="crispEdges"/><rect fill="#161619" x="634.4" y="513.9" width="12.2" height="24.65" shape-rendering="crispEdges"/><rect fill="#161619" x="646.6" y="513.9" width="12.2" height="24.65" shape-rendering="crispEdges"/><rect fill="#161616" x="658.8" y="513.9" width="12.2" height="24.65" shape-rendering="crispEdges"/><rect fill="#161616" x="671" y="513.9" width="36.6" height="24.65" shape-rendering="crispEdges"/><rect fill="#161616" x="707.6" y="513.9" width="244" height="24.65" shape-rendering="crispEdges"/><rect fill="#0a0a0a" x="951.6" y="513.9" width="24.4" height="24.65" shape-rendering="crispEdges"/><rect fill="#141414" x="0" y="538.3" width="12.2" height="24.65" shape-rendering="crispEdges"/><rect fill="#161616" x="12.2" y="538.3" width="24.4" height="24.65" shape-rendering="crispEdges"/><rect fill="#161616" x="36.6" y="538.3" width="219.6" height="24.65" shape-rendering="crispEdges"/><rect fill="#161616" x="256.2" y="538.3" width="353.8" height="24.65" shape-rendering="crispEdges"/><rect fill="#161616" x="610" y="538.3" width="24.4" height="24.65" shape-rendering="crispEdges"/><rect fill="#161619" x="634.4" y="538.3" width="12.2" height="24.65" shape-rendering="crispEdges"/><rect fill="#161619" x="646.6" y="538.3" width="12.2" height="24.65" shape-rendering="crispEdges"/><rect fill="#161616" x="658.8" y="538.3" width="12.2" height="24.65" shape-rendering="crispEdges"/><rect fill="#161616" x="671" y="538.3" width="36.6" height="24.65" shape-rendering="crispEdges"/><rect fill="#161616" x="707.6" y="538.3" width="244" height="24.65" shape-rendering="crispEdges"/><rect fill="#0a0a0a" x="951.6" y="538.3" width="24.4" height="24.65" shape-rendering="crispEdges"/><rect fill="#141414" x="0" y="562.7" width="12.2" height="24.65" shape-rendering="crispEdges"/><rect fill="#161616" x="12.2" y="562.7" width="622.2" height="24.65" shape-rendering="crispEdges"/><rect fill="#161619" x="634.4" y="562.7" width="12.2" height="24.65" shape-rendering="crispEdges"/><rect fill="#161619" x="646.6" y="562.7" width="12.2" height="24.65" shape-rendering="crispEdges"/><rect fill="#161616" x="658.8" y="562.7" width="12.2" height="24.65" shape-rendering="crispEdges"/><rect fill="#161616" x="671" y="562.7" width="36.6" height="24.65" shape-rendering="crispEdges"/><rect fill="#161616" x="707.6" y="562.7" width="244" height="24.65" shape-rendering="crispEdges"/><rect fill="#0a0a0a" x="951.6" y="562.7" width="24.4" height="24.65" shape-rendering="crispEdges"/>
    <g class="terminal-1890149655-matrix">
    <text class="terminal-1890149655-r1" x="0" y="20" textLength="878.4" clip-path="url(#terminal-1890149655-line-0)">glm-5.2&#160;·&#160;fast/high&#160;·&#160;ctx&#160;0%&#160;(70/200000)&#160;·&#160;session&#160;$0.0002&#160;·&#160;day&#160;$0.0002</text><text class="terminal-1890149655-r3" x="976" y="20" textLength="12.2" clip-path="url(#terminal-1890149655-line-0)">
</text><text class="terminal-1890149655-r4" x="0" y="44.4" textLength="12.2" clip-path="url(#terminal-1890149655-line-1)">┌</text><text class="terminal-1890149655-r4" x="12.2" y="44.4" textLength="622.2" clip-path="url(#terminal-1890149655-line-1)">───────────────────────────────────────────────────</text><text class="terminal-1890149655-r4" x="634.4" y="44.4" textLength="12.2" clip-path="url(#terminal-1890149655-line-1)">┐</text><text class="terminal-1890149655-r4" x="646.6" y="44.4" textLength="12.2" clip-path="url(#terminal-1890149655-line-1)">│</text><text class="terminal-1890149655-r4" x="658.8" y="44.4" textLength="12.2" clip-path="url(#terminal-1890149655-line-1)">┌</text><text class="terminal-1890149655-r4" x="671" y="44.4" textLength="292.8" clip-path="url(#terminal-1890149655-line-1)">────────────────────────</text><text class="terminal-1890149655-r4" x="963.8" y="44.4" textLength="12.2" clip-path="url(#terminal-1890149655-line-1)">┐</text><text class="terminal-1890149655-r3" x="976" y="44.4" textLength="12.2" clip-path="url(#terminal-1890149655-line-1)">
</text><text class="terminal-1890149655-r4" x="0" y="68.8" textLength="12.2" clip-path="url(#terminal-1890149655-line-2)">│</text><text class="terminal-1890149655-r5" x="12.2" y="68.8" textLength="170.8" clip-path="url(#terminal-1890149655-line-2)">Kestrel&#160;ready.</text><text class="terminal-1890149655-r4" x="634.4" y="68.8" textLength="12.2" clip-path="url(#terminal-1890149655-line-2)">│</text><text class="terminal-1890149655-r4" x="646.6" y="68.8" textLength="12.2" clip-path="url(#terminal-1890149655-line-2)">│</text><text class="terminal-1890149655-r4" x="658.8" y="68.8" textLength="12.2" clip-path="url(#terminal-1890149655-line-2)">└</text><text class="terminal-1890149655-r4" x="671" y="68.8" textLength="292.8" clip-path="url(#terminal-1890149655-line-2)">────────────────────────</text><text class="terminal-1890149655-r4" x="963.8" y="68.8" textLength="12.2" clip-path="url(#terminal-1890149655-line-2)">┘</text><text class="terminal-1890149655-r3" x="976" y="68.8" textLength="12.2" clip-path="url(#terminal-1890149655-line-2)">
</text><text class="terminal-1890149655-r6" x="0" y="93.2" textLength="12.2" clip-path="url(#terminal-1890149655-line-3)">▔</text><text class="terminal-1890149655-r6" x="12.2" y="93.2" textLength="951.6" clip-path="url(#terminal-1890149655-line-3)">▔▔▔▔▔▔▔▔▔▔▔▔▔▔▔▔▔▔▔▔▔▔▔▔▔▔▔▔▔▔▔▔▔▔▔▔▔▔▔▔▔▔▔▔▔▔▔▔▔▔▔▔▔▔▔▔▔▔▔▔▔▔▔▔▔▔▔▔▔▔▔▔▔▔▔▔▔▔</text><text class="terminal-1890149655-r6" x="963.8" y="93.2" textLength="12.2" clip-path="url(#terminal-1890149655-line-3)">▔</text><text class="terminal-1890149655-r3" x="976" y="93.2" textLength="12.2" clip-path="url(#terminal-1890149655-line-3)">
</text><text class="terminal-1890149655-r3" x="976" y="117.6" textLength="12.2" clip-path="url(#terminal-1890149655-line-4)">
</text><text class="terminal-1890149655-r8" x="24.4" y="142" textLength="12.2" clip-path="url(#terminal-1890149655-line-5)">🔎</text><text class="terminal-1890149655-r9" x="61" y="142" textLength="12.2" clip-path="url(#terminal-1890149655-line-5)">S</text><text class="terminal-1890149655-r10" x="73.2" y="142" textLength="231.8" clip-path="url(#terminal-1890149655-line-5)">earch&#160;for&#160;commands…</text><text class="terminal-1890149655-r3" x="976" y="142" textLength="12.2" clip-path="url(#terminal-1890149655-line-5)">
</text><text class="terminal-1890149655-r3" x="976" y="166.4" textLength="12.2" clip-path="url(#terminal-1890149655-line-6)">
</text><text class="terminal-1890149655-r4" x="0" y="190.8" textLength="12.2" clip-path="url(#terminal-1890149655-line-7)">│</text><text class="terminal-1890149655-r4" x="634.4" y="190.8" textLength="12.2" clip-path="url(#terminal-1890149655-line-7)">│</text><text class="terminal-1890149655-r4" x="646.6" y="190.8" textLength="12.2" clip-path="url(#terminal-1890149655-line-7)">│</text><text class="terminal-1890149655-r5" x="707.6" y="190.8" textLength="231.8" clip-path="url(#terminal-1890149655-line-7)">&lt;-&#160;read_file&#160;(0.1s)</text><text class="terminal-1890149655-r3" x="976" y="190.8" textLength="12.2" clip-path="url(#terminal-1890149655-line-7)">
</text><text class="terminal-1890149655-r3" x="976" y="215.2" textLength="12.2" clip-path="url(#terminal-1890149655-line-8)">
</text><text class="terminal-1890149655-r11" x="24.4" y="239.6" textLength="48.8" clip-path="url(#terminal-1890149655-line-9)">Keys</text><text class="terminal-1890149655-r3" x="976" y="239.6" textLength="12.2" clip-path="url(#terminal-1890149655-line-9)">
</text><text class="terminal-1890149655-r12" x="24.4" y="264" textLength="780.8" clip-path="url(#terminal-1890149655-line-10)">Show&#160;help&#160;for&#160;the&#160;focused&#160;widget&#160;and&#160;a&#160;summary&#160;of&#160;available&#160;keys</text><text class="terminal-1890149655-r3" x="976" y="264" textLength="12.2" clip-path="url(#terminal-1890149655-line-10)">
</text><text class="terminal-1890149655-r11" x="24.4" y="288.4" textLength="97.6" clip-path="url(#terminal-1890149655-line-11)">Maximize</text><text class="terminal-1890149655-r3" x="976" y="288.4" textLength="12.2" clip-path="url(#terminal-1890149655-line-11)">
</text><text class="terminal-1890149655-r13" x="24.4" y="312.8" textLength="329.4" clip-path="url(#terminal-1890149655-line-12)">Maximize&#160;the&#160;focused&#160;widget</text><text class="terminal-1890149655-r3" x="976" y="312.8" textLength="12.2" clip-path="url(#terminal-1890149655-line-12)">
</text><text class="terminal-1890149655-r11" x="24.4" y="337.2" textLength="48.8" clip-path="url(#terminal-1890149655-line-13)">Quit</text><text class="terminal-1890149655-r3" x="976" y="337.2" textLength="12.2" clip-path="url(#terminal-1890149655-line-13)">
</text><text class="terminal-1890149655-r13" x="24.4" y="361.6" textLength="488" clip-path="url(#terminal-1890149655-line-14)">Quit&#160;the&#160;application&#160;as&#160;soon&#160;as&#160;possible</text><text class="terminal-1890149655-r3" x="976" y="361.6" textLength="12.2" clip-path="url(#terminal-1890149655-line-14)">
</text><text class="terminal-1890149655-r11" x="24.4" y="386" textLength="122" clip-path="url(#terminal-1890149655-line-15)">Screenshot</text><text class="terminal-1890149655-r3" x="976" y="386" textLength="12.2" clip-path="url(#terminal-1890149655-line-15)">
</text><text class="terminal-1890149655-r13" x="24.4" y="410.4" textLength="561.2" clip-path="url(#terminal-1890149655-line-16)">Save&#160;an&#160;SVG&#160;&#x27;screenshot&#x27;&#160;of&#160;the&#160;current&#160;screen</text><text class="terminal-1890149655-r3" x="976" y="410.4" textLength="12.2" clip-path="url(#terminal-1890149655-line-16)">
</text><text class="terminal-1890149655-r11" x="24.4" y="434.8" textLength="61" clip-path="url(#terminal-1890149655-line-17)">Theme</text><text class="terminal-1890149655-r3" x="976" y="434.8" textLength="12.2" clip-path="url(#terminal-1890149655-line-17)">
</text><text class="terminal-1890149655-r13" x="24.4" y="459.2" textLength="292.8" clip-path="url(#terminal-1890149655-line-18)">Change&#160;the&#160;current&#160;theme</text><text class="terminal-1890149655-r3" x="976" y="459.2" textLength="12.2" clip-path="url(#terminal-1890149655-line-18)">
</text><text class="terminal-1890149655-r8" x="0" y="483.6" textLength="976" clip-path="url(#terminal-1890149655-line-19)">▁▁▁▁▁▁▁▁▁▁▁▁▁▁▁▁▁▁▁▁▁▁▁▁▁▁▁▁▁▁▁▁▁▁▁▁▁▁▁▁▁▁▁▁▁▁▁▁▁▁▁▁▁▁▁▁▁▁▁▁▁▁▁▁▁▁▁▁▁▁▁▁▁▁▁▁▁▁▁▁</text><text class="terminal-1890149655-r3" x="976" y="483.6" textLength="12.2" clip-path="url(#terminal-1890149655-line-19)">
</text><text class="terminal-1890149655-r4" x="0" y="508" textLength="12.2" clip-path="url(#terminal-1890149655-line-20)">└</text><text class="terminal-1890149655-r4" x="12.2" y="508" textLength="622.2" clip-path="url(#terminal-1890149655-line-20)">───────────────────────────────────────────────────</text><text class="terminal-1890149655-r4" x="634.4" y="508" textLength="12.2" clip-path="url(#terminal-1890149655-line-20)">┘</text><text class="terminal-1890149655-r4" x="646.6" y="508" textLength="12.2" clip-path="url(#terminal-1890149655-line-20)">│</text><text class="terminal-1890149655-r3" x="976" y="508" textLength="12.2" clip-path="url(#terminal-1890149655-line-20)">
</text><text class="terminal-1890149655-r14" x="0" y="532.4" textLength="12.2" clip-path="url(#terminal-1890149655-line-21)">▊</text><text class="terminal-1890149655-r15" x="12.2" y="532.4" textLength="622.2" clip-path="url(#terminal-1890149655-line-21)">▔▔▔▔▔▔▔▔▔▔▔▔▔▔▔▔▔▔▔▔▔▔▔▔▔▔▔▔▔▔▔▔▔▔▔▔▔▔▔▔▔▔▔▔▔▔▔▔▔▔▔</text><text class="terminal-1890149655-r15" x="634.4" y="532.4" textLength="12.2" clip-path="url(#terminal-1890149655-line-21)">▎</text><text class="terminal-1890149655-r4" x="646.6" y="532.4" textLength="12.2" clip-path="url(#terminal-1890149655-line-21)">│</text><text class="terminal-1890149655-r3" x="976" y="532.4" textLength="12.2" clip-path="url(#terminal-1890149655-line-21)">
</text><text class="terminal-1890149655-r14" x="0" y="556.8" textLength="12.2" clip-path="url(#terminal-1890149655-line-22)">▊</text><text class="terminal-1890149655-r16" x="36.6" y="556.8" textLength="219.6" clip-path="url(#terminal-1890149655-line-22)">Describe&#160;a&#160;task...</text><text class="terminal-1890149655-r15" x="634.4" y="556.8" textLength="12.2" clip-path="url(#terminal-1890149655-line-22)">▎</text><text class="terminal-1890149655-r4" x="646.6" y="556.8" textLength="12.2" clip-path="url(#terminal-1890149655-line-22)">│</text><text class="terminal-1890149655-r3" x="976" y="556.8" textLength="12.2" clip-path="url(#terminal-1890149655-line-22)">
</text><text class="terminal-1890149655-r14" x="0" y="581.2" textLength="12.2" clip-path="url(#terminal-1890149655-line-23)">▊</text><text class="terminal-1890149655-r15" x="12.2" y="581.2" textLength="622.2" clip-path="url(#terminal-1890149655-line-23)">▁▁▁▁▁▁▁▁▁▁▁▁▁▁▁▁▁▁▁▁▁▁▁▁▁▁▁▁▁▁▁▁▁▁▁▁▁▁▁▁▁▁▁▁▁▁▁▁▁▁▁</text><text class="terminal-1890149655-r15" x="634.4" y="581.2" textLength="12.2" clip-path="url(#terminal-1890149655-line-23)">▎</text><text class="terminal-1890149655-r4" x="646.6" y="581.2" textLength="12.2" clip-path="url(#terminal-1890149655-line-23)">│</text>
    </g>
    </g>
</svg>
